<?xml version="1.0" encoding="UTF-8" standalone="no" ?>
<!DOCTYPE svg PUBLIC "-//W3C//DTD SVG 1.1//EN" "http://www.w3.org/Graphics/SVG/1.1/DTD/svg11.dtd">
<svg xmlns="http://www.w3.org/2000/svg" xmlns:xlink="http://www.w3.org/1999/xlink" version="1.1" width="1280" height="1024" viewBox="0 0 1280 1024" xml:space="preserve">
<desc>Created with Fabric.js 4.4.0</desc>
<defs>
</defs>
<g transform="matrix(1 0 0 1 640 512)" id="background-logo"  >
<rect style="stroke: none; stroke-width: 0; stroke-dasharray: none; stroke-linecap: butt; stroke-dashoffset: 0; stroke-linejoin: miter; stroke-miterlimit: 4; fill: rgb(255,255,255); fill-opacity: 0; fill-rule: nonzero; opacity: 1;"  paint-order="stroke"  x="-640" y="-512" rx="0" ry="0" width="1280" height="1024" />
</g>
<g transform="matrix(5.476220238438881 0 0 5.47622023843888 632.7003983753509 510.4556410150816)" id="logo-logo"  >
<g style=""  paint-order="stroke"   >
		<g transform="matrix(1.9931503132953496 0 0 1.9931503132953496 -0.024521307159375283 5.87171118602248)"  >
<circle style="stroke: none; stroke-width: 1; stroke-dasharray: none; stroke-linecap: butt; stroke-dashoffset: 0; stroke-linejoin: miter; stroke-miterlimit: 4; fill: rgb(41,0,68); fill-rule: nonzero; opacity: 1;"  paint-order="stroke"  cx="0" cy="0" r="42.1755676" />
</g>
		<g transform="matrix(1.9931503132953496 0 0 1.9931503132953496 -44.623090275705636 -16.412241089123086)"  >
<path style="stroke: none; stroke-width: 1; stroke-dasharray: none; stroke-linecap: butt; stroke-dashoffset: 0; stroke-linejoin: miter; stroke-miterlimit: 4; fill: rgb(16,0,43); fill-rule: nonzero; opacity: 1;"  paint-order="stroke"  transform=" translate(-27.6117791, -41.76567890000001)" d="M 14.877779 65.3149185 C 18.8742218 58.3927612 22.8707371 51.470611600000005 26.8672504 44.54853060000001 C 32.032875 35.601387 37.1984977 26.654245400000008 42.3641929 17.707101800000007 C 43.4620132 15.805522900000007 44.5427932 13.892839400000007 45.6582946 12.001514400000008 C 45.874351399999995 11.635172800000008 46.108085599999995 11.28241060000001 46.3504523 10.936791400000008 C 43.4075583 11.188349700000007 40.550590400000004 11.737861600000008 37.8113784 12.562766100000008 C 37.162570900000006 13.385053700000007 36.6198501 14.271061900000008 36.0960807 15.178358100000008 C 31.844541500000002 22.54224020000001 27.5930022 29.906124100000007 23.341463 37.27000810000001 C 18.5186309 45.62336730000001 13.695939000000001 53.97665410000001 8.8731059 62.33001330000001 C 9.6962422 65.95077520000001 10.9811248 69.39431770000002 12.6696185 72.59456640000002 C 12.7873001 70.0864029 13.5535049 67.6086502 14.877779 65.3149185 z" stroke-linecap="round" />
</g>
		<g transform="matrix(1.9931503132953496 0 0 1.9931503132953496 0 -5.328293117463176)"  >
<linearGradient id="SVGID_11_701664" gradientUnits="userSpaceOnUse" gradientTransform="matrix(1 0 0 1 0 0)"  x1="15.7072496" y1="97.1349716" x2="84.2368927" y2="28.6053314">
<stop offset="0%" style="stop-color:rgb(239,0,211);stop-opacity: 1"/>
<stop offset="100%" style="stop-color:rgb(19,255,251);stop-opacity: 1"/>
</linearGradient>
<path style="stroke: none; stroke-width: 1; stroke-dasharray: none; stroke-linecap: butt; stroke-dashoffset: 0; stroke-linejoin: miter; stroke-miterlimit: 4; fill: url(#SVGID_11_701664); fill-rule: nonzero; opacity: 1;"  paint-order="stroke"  transform=" translate(-50.0000003887038, -47.326698506862684)" d="M 57.7613907 14.395998 C 60.930996 19.8859177 64.1006012 25.3758354 67.2702103 30.8657551 C 72.6740723 40.2255249 78.0779419 49.585292800000005 83.4818039 58.9450607 C 85.1010361 61.7496528 86.7202683 64.554245 88.3395004 67.3588333 C 90.54076380000001 71.1715317 91.57389830000001 75.3208847 90.2349167 79.6612167 C 89.2341766 82.9051284 87.0858765 85.7606125 84.2170563 87.583435 C 83.4724808 88.0565261 82.6825485 88.45926659999999 81.8616715 88.7822494 C 81.6355973 88.8712005 81.4027253 88.9414367 81.1767808 89.0301818 C 82.4109574 88.6989516 83.6451341 88.36772149999999 84.8793031 88.0364913 C 88.7894593 87.0956267 89.835579 86.79862969999999 88.01766980000001 87.14549249999999 C 87.51515210000001 87.21056359999999 87.0157319 87.27578729999999 86.5089418 87.30210109999999 C 86.1516344 87.32065579999998 85.7948076 87.32091519999999 85.4373933 87.32211299999999 C 82.89817819999999 87.33062739999998 80.35877239999999 87.32211299999999 77.819542 87.32211299999999 C 67.2972565 87.32211299999999 56.7749634 87.32211299999999 46.2526742 87.32211299999999 C 38.7441522 87.32211299999999 31.235262 87.34394069999999 23.7267629 87.32211299999999 C 18.0710126 87.30567169999999 12.930369500000001 84.31167599999999 10.4849159 79.13123319999998 C 8.3217861 74.54885859999999 8.9215566 69.61051179999998 11.4016105 65.31493379999998 C 15.3981143 58.392787999999975 19.3946172 51.47064209999998 23.391121 44.54849629999998 C 28.5567532 35.60135659999998 33.7223855 26.654216799999983 38.8880197 17.70707519999998 C 39.9858858 15.80551729999998 41.0666505 13.892818499999981 42.1821329 12.00150589999998 C 43.6096041 9.58121399999998 45.6148149 7.59125669999998 48.1374552 6.32655769999998 C 48.4874193 6.15110639999998 48.8444102 5.98920489999998 49.208206399999995 5.84443479999998 C 49.4666636 5.74158289999998 49.730194299999994 5.659763899999979 49.990657999999996 5.56134659999998 C 50.967941499999995 5.19207869999998 40.75591299999999 7.82643469999998 42.701511599999996 7.52877769999998 C 43.553180899999994 7.39848099999998 44.386264999999995 7.2794566999999795 45.2509653 7.2696171999999795 C 46.9099924 7.2507391999999795 48.573127899999996 7.517368399999979 50.1410906 8.060600399999979 C 53.3860016 9.1848221 56.0164948 11.458745 57.7613907 14.395998 C 57.8887673 14.610414500000001 61.9527168 13.322117800000001 62.3448296 13.2168627 C 62.716148399999994 13.1171904 66.80857089999999 11.786046 66.9037705 11.9463043 C 65.07160189999999 8.862128199999999 62.25625999999999 6.5146875 58.80788429999999 5.456476199999999 C 54.46693429999999 4.124360099999999 50.44541179999999 5.360285299999999 46.20594409999999 6.496247799999999 C 41.86784369999999 7.658637999999999 37.71473319999999 8.620132499999999 34.664188399999986 12.1511126 C 33.85915379999999 13.0829363 33.23149489999999 14.1190873 32.61993789999999 15.1783352 C 28.36839289999999 22.5422287 24.11684799999999 29.9061222 19.86530109999999 37.2700157 C 14.7189445 46.1837692 9.572588 55.0975189 4.4262309 64.0112686 C 3.3092956000000004 65.94586179999999 2.0109751 67.8781204 1.1227701000000003 69.9355621 C -1.7915426999999995 76.686264 1.1680780000000004 84.813652 7.6803091000000006 88.1946106 C 10.703807600000001 89.7643204 13.8554323 89.7718048 17.1314829 89.7718048 C 21.1608103 89.7718048 25.1901358 89.7718048 29.2194632 89.7718048 C 40.4311675 89.7718048 51.6428755 89.7718048 62.8545798 89.7718048 C 66.6773757 89.7718048 70.5001677 89.7718048 74.32296740000001 89.7718048 C 75.0534209 89.7718048 75.78427110000001 89.7787933 76.5147093 89.7718048 C 77.55175000000001 89.7618942 78.57366160000001 89.6702194 79.59088120000001 89.4651337 C 83.18938430000001 88.73961639999999 86.86977370000001 87.77581789999999 90.34075150000001 86.57731629999999 C 97.167404 84.22013089999999 101.32531720000001 76.81840519999999 99.61598190000001 69.7637177 C 98.97983540000001 67.1382599 97.44123820000002 64.8387528 96.10498030000001 62.5242844 C 91.08486920000001 53.829189299999996 86.0647505 45.1340943 81.04463940000001 36.4389992 C 76.58328230000001 28.711708099999996 72.12193280000001 20.984416999999997 67.66057570000001 13.257123999999997 C 67.40830980000001 12.820183799999997 67.1560438 12.383243599999997 66.9037703 11.946304399999997 C 66.78370650000001 11.738348099999998 62.70840820000001 13.021267999999997 62.32033140000001 13.125438799999998 C 61.9529381 13.2240582 57.8488693 14.547513 57.7613907 14.395998 z" stroke-linecap="round" />
</g>
		<g transform="matrix(1.9931503132953496 0 0 1.9931503132953496 6.322216908421581 5.998932774629964)"  >
<path style="stroke: none; stroke-width: 1; stroke-dasharray: none; stroke-linecap: butt; stroke-dashoffset: 0; stroke-linejoin: miter; stroke-miterlimit: 4; fill: rgb(41,0,68); fill-rule: nonzero; opacity: 1;"  paint-order="stroke"  transform=" translate(-53.17197235, -53.009775100000006)" d="M 53.1151772 10.898035 C 74.9458619 12.5001058 92.1632615 30.7062053 92.1632615 52.9459476 C 92.1632615 58.898218099999994 90.9064561 64.54850189999999 88.67919930000001 69.6803913 L 88.6989365 69.6803913 C 88.6253128 69.8504734 88.5362015 70.0119343 88.4603882 70.1808185 C 88.2071304 70.7443332 87.9415665 71.3001422 87.6646195 71.8502902 C 87.5037308 72.1703814 87.3436127 72.4902514 87.1748734 72.8056048 C 87.0912018 72.96183189999999 87.01765449999999 73.12420829999999 86.9320832 73.27923 L 86.90555579999999 73.27923 C 79.72555549999998 86.2912081 65.90048989999998 95.1215152 49.98769769999999 95.1215152 C 34.873622999999995 95.1215152 21.62482459999999 87.16703220000001 14.18068319999999 75.21917140000001 L 53.1151772 10.898035 z" stroke-linecap="round" />
</g>
</g>
</g>
<g transform="matrix(1.9211538461538462 0 0 1.9211538461538462 554.0620180832786 555.1008995238305)" id="tagline-1b2ce0c5-b804-491a-ab67-796a48705d54-logo"  >
<g style=""  paint-order="stroke"   >
		<g transform="matrix(1 0 0 1 0 0)" id="tagline-1b2ce0c5-b804-491a-ab67-796a48705d54-logo-path-0"  >
<filter id="SVGID_701663" y="-34.868217033802736%" height="169.73643406760547%" x="-34.976278506114966%" width="169.95255701222993%" >
	<feGaussianBlur in="SourceAlpha" stdDeviation="0"></feGaussianBlur>
	<feOffset dx="17.10291005398329" dy="17.10291005398329" result="oBlur" ></feOffset>
	<feFlood flood-color="rgb(16,0,43)" flood-opacity="1"/>
	<feComposite in2="oBlur" operator="in" />
	<feMerge>
		<feMergeNode></feMergeNode>
		<feMergeNode in="SourceGraphic"></feMergeNode>
	</feMerge>
</filter>
<path style="stroke: none; stroke-width: 0; stroke-dasharray: none; stroke-linecap: butt; stroke-dashoffset: 0; stroke-linejoin: miter; stroke-miterlimit: 4; fill: rgb(19,255,251); fill-rule: nonzero; opacity: 1;filter: url(#SVGID_701663);"  paint-order="stroke"  transform=" translate(-57.6, 57.515)" d="M 84.76 0 L 114.7 0 L 72.48 -115.03 L 42.55 -115.03 L 0.5 0 L 30.44 0 L 37.84 -20.01 L 77.36 -20.01 Z M 47.43 -46.59 L 57.69 -74.33 L 67.61 -46.59 Z" stroke-linecap="round" />
</g>
</g>
</g>
<g transform="matrix(1.9211538461538462 0 0 1.9211538461538462 774.979215557001 555.1008995238305)" id="text-logo"  >
<g style=""  paint-order="stroke"   >
		<g transform="matrix(1 0 0 1 0 0)" id="text-logo-path-0"  >
<filter id="SVGID_701662" y="-34.868217033802736%" height="169.73643406760547%" x="-38.15981105753163%" width="176.31962211506325%" >
	<feGaussianBlur in="SourceAlpha" stdDeviation="0"></feGaussianBlur>
	<feOffset dx="17.10291005398329" dy="17.10291005398329" result="oBlur" ></feOffset>
	<feFlood flood-color="rgb(16,0,43)" flood-opacity="1"/>
	<feComposite in2="oBlur" operator="in" />
	<feMerge>
		<feMergeNode></feMergeNode>
		<feMergeNode in="SourceGraphic"></feMergeNode>
	</feMerge>
</filter>
<path style="stroke: none; stroke-width: 0; stroke-dasharray: none; stroke-linecap: butt; stroke-dashoffset: 0; stroke-linejoin: miter; stroke-miterlimit: 4; fill: rgb(230,17,212); fill-rule: nonzero; opacity: 1;filter: url(#SVGID_701662);"  paint-order="stroke"  transform=" translate(-57.52, 57.515)" d="M 51.97 -37 L 72.65 0 L 104.61 0 L 80.56 -43.39 C 91.66 -50.62 98.05 -62.9 98.05 -76.02 C 98.05 -97.71 80.73 -115.03 59.2 -115.03 L 10.43 -115.03 L 10.43 0 L 38.51 0 L 38.51 -37 Z M 38.51 -63.57 L 38.51 -88.46 L 59.2 -88.46 C 66.26 -88.46 71.64 -83.08 71.64 -76.02 C 71.64 -69.29 65.93 -63.57 59.2 -63.57 Z" stroke-linecap="round" />
</g>
</g>
</g>
</svg>